<svg width="16" height="16" viewBox="0 0 16 16" fill="none" xmlns="http://www.w3.org/2000/svg">
<path d="M3.32525 7.61801C3.32524 7.52865 3.34287 7.44018 3.37713 7.35766C3.4114 7.27514 3.46163 7.20021 3.52493 7.13717C3.58823 7.07413 3.66336 7.02422 3.746 6.99031C3.82864 6.9564 3.91716 6.93916 4.00648 6.93958L5.13589 6.94328C5.31597 6.94328 5.48867 7.01485 5.61601 7.14223C5.74335 7.26961 5.81488 7.44238 5.81488 7.62253V11.8948C5.94211 11.8571 6.10528 11.8169 6.28403 11.7749C6.40814 11.7457 6.51875 11.6754 6.59793 11.5754C6.6771 11.4755 6.7202 11.3517 6.72023 11.2241V5.92471C6.72022 5.74455 6.79174 5.57175 6.91908 5.44434C7.04641 5.31693 7.21912 5.24533 7.39922 5.2453H8.53092C8.71102 5.24535 8.88372 5.31695 9.01105 5.44436C9.13839 5.57177 9.20992 5.74455 9.20992 5.92471V10.8433C9.20992 10.8433 9.49313 10.7285 9.7692 10.612C9.87172 10.5686 9.95919 10.496 10.0207 10.4032C10.0823 10.3104 10.1151 10.2015 10.1152 10.0902V4.2263C10.1152 4.13711 10.1328 4.04879 10.1669 3.96638C10.201 3.88398 10.251 3.8091 10.314 3.74602C10.3771 3.68295 10.4519 3.63291 10.5343 3.59878C10.6167 3.56464 10.7049 3.54706 10.7941 3.54706H11.9258C12.1059 3.54706 12.2786 3.61862 12.4059 3.746C12.5333 3.87338 12.6048 4.04615 12.6048 4.2263V9.0549C13.5859 8.34362 14.5803 7.48806 15.3694 6.45936C15.4838 6.31004 15.5596 6.13469 15.5899 5.94895C15.6201 5.76322 15.604 5.57288 15.5428 5.39492C15.0089 3.83839 14.0075 2.48482 12.6754 1.51929C11.3433 0.553761 9.74556 0.0233998 8.10071 0.000725276C3.66526 -0.0588797 -0.000397328 3.56313 3.83792e-05 8.00075C-0.00431669 9.40496 0.362044 10.7854 1.06208 12.0026C1.15862 12.169 1.30064 12.3045 1.47147 12.393C1.6423 12.4816 1.83483 12.5195 2.02646 12.5023C2.24056 12.4835 2.5071 12.4568 2.82397 12.4196C2.96189 12.4039 3.08922 12.338 3.18171 12.2345C3.2742 12.1309 3.32538 11.997 3.32552 11.8581V7.61801" fill="#009AFF"/>
<path d="M3.30084 14.4696C4.49369 15.3376 5.90335 15.8587 7.37386 15.9751C8.84437 16.0915 10.3184 15.7987 11.6329 15.129C12.9474 14.4594 14.051 13.4391 14.8218 12.1809C15.5926 10.9227 16.0004 9.47578 16.0002 8.00014C16.0002 7.81593 15.9916 7.63379 15.9793 7.45264C13.0578 11.8113 7.66352 13.8493 3.30078 14.4697" fill="#009AFF"/>
</svg>
