<svg width="50" height="50" viewBox="0 0 64 64" fill="none" xmlns="http://www.w3.org/2000/svg">
<path d="M18.8108 36.4411C20.6501 36.4411 22.4445 35.828 23.8949 34.7065L12.2314 23.043C9.42016 26.6766 10.0931 31.9103 13.7267 34.7215C15.1921 35.828 16.9716 36.4411 18.8108 36.4411Z" fill="#00A6C4"/>
<path d="M53.5036 28.1124C53.5036 26.2732 52.8905 24.4788 51.769 23.0283L40.1055 34.6919C43.7391 37.5031 48.9578 36.8302 51.769 33.1965C52.8905 31.7461 53.5036 29.9517 53.5036 28.1124Z" fill="#00A6C4"/>
<path d="M59.3794 15.417L54.2206 20.5759C58.3776 25.5553 57.7196 32.9721 52.7402 37.1291C48.3738 40.7777 42.0336 40.7777 37.6673 37.1291L32 42.7964L26.3477 37.1441C21.3682 41.3011 13.9514 40.6432 9.79439 35.6637C6.14579 31.2974 6.14579 24.9572 9.79439 20.5908L7.14766 17.9441L4.63551 15.417C1.6 20.4114 0 26.1534 0 32.0002C0 49.6749 14.3252 64.0002 32 64.0002C49.6748 64.0002 64 49.6749 64 32.0002C64.015 26.1534 62.4 20.4114 59.3794 15.417Z" fill="#00A6C4"/>
<path d="M55.1477 9.91384C42.9608 -2.87121 22.714 -3.34972 9.929 8.8372C9.55517 9.19608 9.19629 9.55496 8.85237 9.91384C8.05984 10.7512 7.31218 11.6185 6.60938 12.5307L32 37.9363L57.3907 12.5307C56.7028 11.6185 55.9402 10.7512 55.1477 9.91384ZM32 4.18673C39.4767 4.18673 46.4449 7.07271 51.6785 12.3363L32 32.0148L12.3215 12.3363C17.5552 7.07271 24.5234 4.18673 32 4.18673Z" fill="#00A6C4"/>
</svg>
