<svg width="16" height="16" viewBox="0 0 16 16" fill="none" xmlns="http://www.w3.org/2000/svg">
<path d="M2.34375 2.34375L1.28125 1.28125C0.809375 0.809375 0 1.14375 0 1.80938V5.25C0 5.66563 0.334375 6 0.75 6H4.19063C4.85938 6 5.19375 5.19063 4.72188 4.71875L3.75938 3.75625C4.84375 2.67188 6.34375 2 8 2C11.3125 2 14 4.6875 14 8C14 11.3125 11.3125 14 8 14C6.725 14 5.54375 13.6031 4.57188 12.925C4.11875 12.6094 3.49687 12.7188 3.17812 13.1719C2.85938 13.625 2.97187 14.2469 3.425 14.5656C4.725 15.4688 6.30312 16 8 16C12.4187 16 16 12.4187 16 8C16 3.58125 12.4187 0 8 0C5.79063 0 3.79063 0.896875 2.34375 2.34375ZM8 4C7.58437 4 7.25 4.33437 7.25 4.75V8C7.25 8.2 7.32812 8.39062 7.46875 8.53125L9.71875 10.7812C10.0125 11.075 10.4875 11.075 10.7781 10.7812C11.0687 10.4875 11.0719 10.0125 10.7781 9.72188L8.74687 7.69063V4.75C8.74687 4.33437 8.4125 4 7.99687 4H8Z" fill="#333333"/>
</svg>
