<svg width="16" height="14" viewBox="0 0 16 14" fill="none" xmlns="http://www.w3.org/2000/svg">
<path d="M0 2.01038V3.35413C0 3.84963 0.397222 4.24996 0.888889 4.24996H1.33333H2.66667V2.01038C2.66667 1.26851 2.06944 0.666626 1.33333 0.666626C0.597222 0.666626 0 1.26851 0 2.01038ZM3.11111 0.666626C3.38889 1.04176 3.55556 1.50647 3.55556 2.01038V10.5208C3.55556 11.509 4.35278 12.3125 5.33333 12.3125C6.31389 12.3125 7.11111 11.509 7.11111 10.5208V10.3724C7.11111 9.46539 7.84167 8.72913 8.74167 8.72913H13.3333V3.35413C13.3333 1.8704 12.1389 0.666626 10.6667 0.666626H3.11111ZM12.8889 13.2083C14.6083 13.2083 16 11.8058 16 10.0729C16 9.82652 15.8 9.62496 15.5556 9.62496H8.74167C8.33333 9.62496 8 9.9581 8 10.3724V10.5208C8 12.0045 6.80556 13.2083 5.33333 13.2083H10.2222H12.8889Z" fill="#009AFF"/>
</svg>
