<svg width="55" height="50" viewBox="0 0 64 58" fill="none" xmlns="http://www.w3.org/2000/svg">
<path d="M48.2951 17.5132C47.1144 16.786 45.5793 16.786 44.2805 17.5132L35.07 23.0882L28.8117 26.7241L19.6015 32.2994C18.4207 33.0265 16.8856 33.0265 15.5867 32.2994L8.26568 27.9362C7.08488 27.2091 6.2583 25.8759 6.2583 24.4214V15.8164C6.2583 14.362 6.96678 13.0288 8.26568 12.3016L15.4686 8.05968C16.6494 7.33249 18.1844 7.33249 19.4834 8.05968L26.6863 12.3016C27.8671 13.0288 28.6937 14.362 28.6937 15.8164V21.3915L34.952 17.6343V12.0592C34.952 10.6048 34.2436 9.27168 32.9446 8.54449L19.6015 0.545393C18.4207 -0.181798 16.8856 -0.181798 15.5867 0.545393L2.00739 8.54449C0.708488 9.27168 0 10.6048 0 12.0592V28.1786C0 29.6329 0.708488 30.9661 2.00739 31.6933L15.5867 39.6924C16.7675 40.4197 18.3027 40.4197 19.6015 39.6924L28.8117 34.2384L35.07 30.4814L44.2805 25.0274C45.4612 24.3003 46.9963 24.3003 48.2951 25.0274L55.4981 29.2695C56.679 29.9966 57.5056 31.3298 57.5056 32.7841V41.3892C57.5056 42.8435 56.7971 44.1768 55.4981 44.9039L48.2951 49.2672C47.1144 49.9943 45.5793 49.9943 44.2805 49.2672L37.0775 45.0252C35.8966 44.298 35.07 42.9648 35.07 41.5103V35.9353L28.8117 39.6924V45.2676C28.8117 46.7219 29.5203 48.0551 30.8192 48.7822L44.3985 56.7815C45.5793 57.5086 47.1144 57.5086 48.4132 56.7815L61.9927 48.7822C63.1734 48.0551 64 46.7219 64 45.2676V29.1482C64 27.6939 63.2915 26.3607 61.9927 25.6335L48.2951 17.5132Z" fill="#7950DD"/>
</svg>
