<svg width="16" height="17" viewBox="0 0 16 17" fill="none" xmlns="http://www.w3.org/2000/svg">
<path d="M6.5157 1.82053L7.30847 1.03637C7.64415 0.704346 8.18694 0.704346 8.51905 1.03637L15.4611 7.89947C15.7968 8.2315 15.7968 8.76839 15.4611 9.09689L8.51905 15.9635C8.18337 16.2955 7.64058 16.2955 7.30847 15.9635L6.5157 15.1794C6.17646 14.8438 6.1836 14.2963 6.52999 13.9678L10.8331 9.91283L0.569938 9.91283C0.0949908 9.91283 -0.287109 9.53488 -0.287109 9.0651L-0.287109 7.93479C-0.287109 7.46501 0.0949908 7.08706 0.569938 7.08706L10.8331 7.08706L6.52999 3.03208C6.18003 2.70358 6.17288 2.15609 6.5157 1.82053Z" fill="#009AFF"/>
</svg>
